# xmcd
#
# Track frame offsets:
#	225
#	16450
#	31788
#	44330
#	60130
#	71833
#	84270
#	93688
#	106028
#	121575
#	132198
#	143648
#	154505
#	166088
#	183208
#	194948
#
# Disc length: 2829 seconds
#
# Revision: 0
# Processed by: cddbd v1.5.1PL2 Copyright (c) Steve Scherf et al.
# Submitted via: EasyCDDAExtractor 10.0.1.1
#
DISCID=c50b0a10
DTITLE=Logue and McCool - Together
DYEAR=1991
DGENRE=Country
TTITLE0=I Just Want to Dance with You
TTITLE1=Lucky Old Colorado
TTITLE2=Her Thinking I'm Doing her Wrong
TTITLE3=Am I Losing You
TTITLE4=The Human Race
TTITLE5=Looks Aren't Everything
TTITLE6=I Know One
TTITLE7=You Don't Have Very Far to Go
TTITLE8=Speed of the Sound of Loneliness
TTITLE9=There Won't be Anymore
TTITLE10=Smoking the Hive
TTITLE11=Muddy Water
TTITLE12=How Can I Write on Paper
TTITLE13=Crystal Falling Rain
TTITLE14=We Could have Been Sweethearts
TTITLE15=If Tomorrow Never Comes
EXTD=ENSORECORD: 132976\n
EXTT0=
EXTT1=
EXTT2=
EXTT3=
EXTT4=
EXTT5=
EXTT6=
EXTT7=
EXTT8=
EXTT9=
EXTT10=
EXTT11=
EXTT12=
EXTT13=
EXTT14=
EXTT15=
PLAYORDER=
